<svg width="255" height="200" viewBox="0 0 255 200" fill="none" xmlns="http://www.w3.org/2000/svg">
<path fill-rule="evenodd" clip-rule="evenodd" d="M317.319 124.962C378.077 124.962 427.331 75.7082 427.331 14.95C427.331 -45.8081 378.077 -95.0623 317.319 -95.0623C256.561 -95.0623 207.306 -45.8081 207.306 14.95C207.306 75.7082 256.561 124.962 317.319 124.962ZM317.319 175.835C406.173 175.835 478.204 103.804 478.204 14.95C478.204 -73.9043 406.173 -145.935 317.319 -145.935C228.464 -145.935 156.434 -73.9043 156.434 14.95C156.434 103.804 228.464 175.835 317.319 175.835Z" fill="white" fill-opacity="0.3"/>
<path fill-rule="evenodd" clip-rule="evenodd" d="M392.594 -269.73C375.546 -273.611 357.8 -275.661 339.576 -275.661C208.226 -275.661 101.746 -169.181 101.746 -37.8307C101.746 79.3481 186.489 176.734 298.033 196.384C284.044 198.761 269.666 199.999 255 199.999C114.168 199.999 0 85.8323 0 -55.0003C0 -195.833 114.168 -310 255 -310C305.676 -310 352.9 -295.218 392.594 -269.73Z" fill="white" fill-opacity="0.3"/>
</svg>
