<svg width="103" height="76" viewBox="0 0 103 76" fill="none" xmlns="http://www.w3.org/2000/svg">
<g clip-path="url(#clip0_6135_2082)">
<path d="M1.17879 68.7634C1.14264 70.9643 1.10648 73.1653 1.05587 75.3663C1.04141 75.9785 1.79339 76.0368 2.26338 75.9713C2.62491 75.9202 3.00813 75.8182 3.31905 75.6068C3.50705 75.483 3.84688 75.2643 3.84688 75.0092C3.8975 72.8082 3.94088 70.6072 3.9698 68.4062C3.97704 67.794 3.23951 67.7357 2.76229 67.8013C2.40076 67.8523 2.01754 67.9544 1.70662 68.1657C1.52586 68.2896 1.17879 68.5083 1.17879 68.7634Z" fill="black"/>
<path d="M1.26565 58.0935C1.26565 60.1269 1.25118 62.1602 1.22949 64.1936C1.22949 64.4414 1.28011 64.5799 1.51149 64.6965C1.76456 64.8277 2.15501 64.835 2.42977 64.7912C2.7913 64.7402 3.17453 64.6382 3.48544 64.4268C3.66621 64.3029 4.01328 64.0843 4.01328 63.8292C4.03497 61.7958 4.0422 59.7625 4.04943 57.7291C4.04943 57.4813 3.99881 57.3501 3.76744 57.2262C3.51436 57.095 3.12391 57.0877 2.84915 57.1315C2.48762 57.1825 2.1044 57.2845 1.79348 57.4959C1.61271 57.6198 1.26565 57.8384 1.26565 58.0935Z" fill="black"/>
<path d="M1.19342 46.0966C1.22957 48.6401 1.25126 51.1764 1.25849 53.7199C1.25849 53.9385 1.65617 54.077 1.80079 54.1062C2.12616 54.1791 2.53108 54.1353 2.84199 54.0479C3.3626 53.8948 4.05674 53.596 4.04951 52.9692C4.04227 50.4257 4.01335 47.8895 3.98443 45.3459C3.98443 45.1273 3.58675 44.9888 3.44213 44.9596C3.11676 44.8868 2.71184 44.9305 2.40093 45.018C1.88032 45.171 1.18618 45.4698 1.19342 46.0966Z" fill="black"/>
<path d="M0.933094 33.8964C1.0054 36.4399 1.07048 38.9762 1.11386 41.5197C1.11386 41.7384 1.51154 41.8768 1.65615 41.906C1.98153 41.9789 2.38645 41.9351 2.69736 41.8477C3.21074 41.6946 3.91934 41.3958 3.90487 40.769C3.85426 38.2255 3.79641 35.6893 3.72411 33.1457C3.72411 32.9271 3.33366 32.7886 3.18181 32.7595C2.85644 32.6866 2.45152 32.7303 2.14061 32.8178C1.63446 32.9708 0.911402 33.2696 0.933094 33.8964Z" fill="black"/>
<path d="M0.505708 22.2138C0.606937 24.5824 0.700935 26.951 0.787702 29.3269C0.794933 29.5529 1.17815 29.684 1.33 29.7132C1.65537 29.7861 2.06029 29.7423 2.3712 29.6549C2.87735 29.5091 3.60041 29.203 3.57872 28.5763C3.49918 26.2076 3.40518 23.839 3.29672 21.4631C3.28949 21.2372 2.90627 21.106 2.75443 21.0768C2.42905 21.004 2.02414 21.0477 1.71322 21.1351C1.21431 21.2809 0.476786 21.587 0.505708 22.2138Z" fill="black"/>
<path d="M0.000280183 12.0614C0.101509 13.9199 0.202737 15.7856 0.296735 17.6441C0.311196 17.87 0.687188 17.9939 0.839031 18.0304C1.16441 18.1032 1.56932 18.0595 1.88024 17.9721C2.37915 17.8263 3.1239 17.5202 3.08775 16.8934C2.99375 15.035 2.89975 13.1692 2.79129 11.3108C2.77683 11.0848 2.40084 10.9609 2.249 10.9245C1.92362 10.8516 1.51871 10.8953 1.20779 10.9828C0.71611 11.1286 -0.0358729 11.4419 0.000280183 12.0614Z" fill="black"/>
<path d="M85.6464 6.82844C87.642 6.68996 89.6377 6.53691 91.6333 6.362C92.1467 6.31827 93.0939 6.00489 93.224 5.40726C93.3542 4.7732 92.3781 4.7732 92.0165 4.80235C90.0209 4.96998 88.0252 5.12303 86.0296 5.26879C85.5162 5.30523 84.569 5.63319 84.4388 6.22353C84.3015 6.86488 85.2848 6.8503 85.6464 6.82844Z" fill="black"/>
<path d="M70.9468 7.54309C73.9041 7.42648 76.8542 7.30987 79.8116 7.19327C80.4406 7.16411 81.2794 7.00378 81.6554 6.42802C82.0024 5.8887 81.3589 5.5826 80.8961 5.59718C77.9388 5.71379 74.9887 5.8304 72.0314 5.94701C71.4024 5.96887 70.5636 6.13649 70.1876 6.71225C69.8405 7.25157 70.4841 7.55767 70.9468 7.54309Z" fill="black"/>
<path d="M55.1265 8.18433C58.59 8.03857 62.0534 7.89281 65.5169 7.76162C66.146 7.73976 66.9847 7.57213 67.3607 6.99638C67.7078 6.45706 67.0642 6.15096 66.6015 6.16554C63.138 6.30401 59.6746 6.44248 56.2111 6.58825C55.582 6.6174 54.7433 6.77773 54.3673 7.35349C54.0202 7.89281 54.6638 8.19891 55.1265 8.18433Z" fill="black"/>
<path d="M38.4666 9.00104C42.1976 8.78969 45.9286 8.6002 49.6596 8.42529C50.2742 8.39613 51.1491 8.24308 51.5034 7.66004C51.8288 7.12072 51.2214 6.80733 50.7442 6.8292C46.7746 7.0114 42.8122 7.21547 38.8426 7.4414C38.3437 7.47055 37.3531 7.81309 37.2519 8.39613C37.1434 9.03748 38.0762 9.02291 38.4594 9.00104H38.4666Z" fill="black"/>
<path d="M23.9188 9.96991C27.0931 9.72211 30.2673 9.50347 33.4488 9.2994C33.9621 9.27025 34.9093 8.935 35.0395 8.34467C35.1769 7.70332 34.1935 7.71789 33.832 7.73976C30.6577 7.94382 27.4763 8.16246 24.302 8.41026C23.7887 8.4467 22.8415 8.77466 22.7113 9.365C22.5739 9.99906 23.5573 9.99177 23.9188 9.96991Z" fill="black"/>
<path d="M8.90101 11.3472C12.068 11.0046 15.235 10.6985 18.4093 10.4216C18.9226 10.3778 19.8698 10.0645 20 9.46683C20.1301 8.83277 19.154 8.83277 18.7925 8.86192C15.6182 9.13887 12.4512 9.44497 9.28423 9.78751C8.76363 9.84581 7.82365 10.1373 7.6935 10.7422C7.56335 11.3472 8.53948 11.3836 8.90101 11.3472Z" fill="black"/>
<path d="M1.41753 12.2218C2.41536 12.0979 3.41318 11.974 4.411 11.8574C4.7653 11.8137 5.16299 11.6898 5.46667 11.493C5.64744 11.3837 5.96558 11.1432 5.99451 10.8954C6.08127 10.2686 5.19191 10.2468 4.787 10.2905C3.78917 10.4071 2.79135 10.531 1.79352 10.6549C1.43922 10.6986 1.04154 10.8225 0.737855 11.0193C0.55709 11.1286 0.238944 11.3691 0.210021 11.6169C0.123254 12.2437 1.01262 12.2728 1.41753 12.2218Z" fill="black"/>
</g>
<defs>
<clipPath id="clip0_6135_2082">
<rect width="103" height="76" fill="white"/>
</clipPath>
</defs>
</svg>
