<svg width="80" height="24" viewBox="0 0 80 24" fill="none" xmlns="http://www.w3.org/2000/svg">
<path fill-rule="evenodd" clip-rule="evenodd" d="M14.8807 20.4688C17.73 20.4688 20.0398 18.151 20.0398 15.2918C20.0398 12.4326 17.73 10.1147 14.8807 10.1147C12.0314 10.1147 9.72164 12.4326 9.72164 15.2918C9.72164 18.151 12.0314 20.4688 14.8807 20.4688ZM14.8807 22.8628C19.0476 22.8628 22.4255 19.4732 22.4255 15.2918C22.4255 11.1104 19.0476 7.7207 14.8807 7.7207C10.7138 7.7207 7.33594 11.1104 7.33594 15.2918C7.33594 19.4732 10.7138 22.8628 14.8807 22.8628Z" fill="#636366"/>
<path fill-rule="evenodd" clip-rule="evenodd" d="M20.305 3.39176C21.6248 4.67824 22.6496 6.26766 23.2682 8.04818C21.44 6.25341 18.9379 5.14709 16.1783 5.14709C11.0232 5.14709 6.76665 9.0077 6.1232 14.0049C6.06769 13.5739 6.03906 13.1344 6.03906 12.6882C6.03906 7.06898 10.5786 2.51367 16.1783 2.51367C17.6479 2.51367 19.0444 2.8274 20.305 3.39176Z" fill="#636366"/>
<path fill-rule="evenodd" clip-rule="evenodd" d="M23.5381 14.9899C23.7825 14.034 23.9125 13.0319 23.9125 11.9995C23.9125 11.1777 23.8301 10.3753 23.6733 9.59996C21.9941 7.6935 19.6046 6.41294 16.8772 6.1963C16.4339 6.16109 15.9951 6.15506 15.5625 6.17656C19.8474 7.08174 23.0567 10.6673 23.5381 14.9899Z" fill="#636366"/>
<path fill-rule="evenodd" clip-rule="evenodd" d="M18.4109 1.89508C17.6114 1.71241 16.7792 1.61596 15.9246 1.61596C9.76483 1.61596 4.7714 6.62679 4.7714 12.808C4.7714 18.3223 8.74549 22.9051 13.9764 23.8298C13.3203 23.9417 12.6461 24 11.9583 24C5.35393 24 0 18.6274 0 12C0 5.37258 5.35393 0 11.9583 0C14.3348 0 16.5494 0.695644 18.4109 1.89508Z" fill="#636366"/>
<path d="M29.2266 10.2046H37.5963V12.194H29.2266V10.2046ZM34.5467 7.1543H37.5963V9.27626H35.8669C35.5148 9.26742 35.242 9.28511 35.0484 9.32931C34.8636 9.37352 34.7316 9.46194 34.6523 9.59456C34.5819 9.72718 34.5467 9.93054 34.5467 10.2046V16.3053H31.3784V9.54151C31.3784 9.01102 31.4752 8.56894 31.6688 8.21528C31.8712 7.86162 32.2013 7.59637 32.6589 7.41954C33.1254 7.24271 33.7547 7.1543 34.5467 7.1543Z" fill="#636366"/>
<path d="M38.4521 9.80676H41.6204V16.3053H38.4521V9.80676ZM45.0264 12.2603C44.4543 12.2603 43.9307 12.3133 43.4554 12.4194C42.9802 12.5255 42.5753 12.6537 42.2409 12.804C41.9065 12.9455 41.6556 13.087 41.4884 13.2284L41.462 12.5918C41.4884 12.4062 41.5588 12.1896 41.6732 11.942C41.7877 11.6856 41.9417 11.4248 42.1353 11.1595C42.3289 10.8854 42.5665 10.6334 42.8482 10.4036C43.1298 10.1648 43.451 9.97475 43.8119 9.83328C44.1815 9.68298 44.5864 9.60782 45.0264 9.60782V12.2603Z" fill="#636366"/>
<path d="M50.6829 16.491C49.7324 16.491 48.8875 16.3583 48.1482 16.0931C47.409 15.819 46.8237 15.4256 46.3924 14.9127C45.97 14.3999 45.7588 13.781 45.7588 13.056C45.7588 12.2956 45.97 11.6591 46.3924 11.1462C46.8237 10.6334 47.409 10.2488 48.1482 9.99243C48.8875 9.73602 49.7324 9.60782 50.6829 9.60782C51.739 9.60782 52.6499 9.75371 53.4156 10.0455C54.1901 10.3284 54.7842 10.7307 55.1978 11.2523C55.6202 11.7652 55.8315 12.3664 55.8315 13.056C55.8315 13.5688 55.7127 14.0374 55.475 14.4618C55.2374 14.8774 54.8942 15.2399 54.4453 15.5493C53.9965 15.8499 53.4552 16.0842 52.8215 16.2522C52.1879 16.4114 51.475 16.491 50.6829 16.491ZM51.871 14.4751C52.5399 14.4751 53.1516 14.4353 53.706 14.3557C54.2693 14.2673 54.7181 14.1214 55.0526 13.9181C55.3958 13.7147 55.5674 13.4274 55.5674 13.056C55.5674 12.6758 55.3958 12.3841 55.0526 12.1807C54.7181 11.9774 54.2693 11.8359 53.706 11.7563C53.1516 11.6767 52.5399 11.637 51.871 11.637C50.9733 11.637 50.2781 11.7563 49.7852 11.995C49.2924 12.2249 49.0459 12.5786 49.0459 13.056C49.0459 13.3655 49.1559 13.6263 49.376 13.8385C49.596 14.0507 49.9172 14.2098 50.3397 14.3159C50.7621 14.422 51.2726 14.4751 51.871 14.4751ZM55.5674 9.80676H58.7358V16.3053H55.7523C55.7523 16.3053 55.7347 16.2036 55.6994 16.0003C55.673 15.7969 55.6422 15.5051 55.607 15.1249C55.5806 14.7448 55.5674 14.2983 55.5674 13.7854V9.80676Z" fill="#636366"/>
<path d="M60.0622 7.1543H63.2306V16.3053H60.0622V7.1543ZM71.257 9.80676L66.0293 13.4539L66.0953 11.7298L71.7059 16.3053H67.6926L63.2834 12.6051L67.059 9.80676H71.257Z" fill="#636366"/>
<path d="M72.041 9.80676H79.8034V11.7961H72.041V9.80676ZM74.338 7.81741H77.5064V16.3053H74.338V7.81741Z" fill="#636366"/>
</svg>
