<svg width="116" height="42" viewBox="0 0 116 42" fill="none" xmlns="http://www.w3.org/2000/svg">
<g clip-path="url(#clip0_6135_1848)">
<path d="M7.15299 34.6021C7.42318 25.4317 8.1662 16.2953 9.34829 7.2101L2.50908 8.57374C5.17721 14.6419 6.46062 21.1533 8.36884 27.4942C9.28074 30.5453 10.3446 33.5453 11.8138 36.3749C13.3505 39.3578 14.8703 41.6419 18.4166 41.9828C19.7675 42.1192 22.8747 41.2669 23.1956 39.5794C24.2932 33.9203 25.222 28.2272 25.9481 22.5169C26.6743 16.8067 27.5186 11.0283 27.5524 5.31806C27.5524 2.45442 20.8989 3.8692 20.6288 6.18738C19.9702 11.8976 19.7337 17.676 19.0245 23.3862C18.3152 29.0965 17.3865 34.7897 16.3057 40.4487L21.0847 38.0453C20.6456 38.0112 19.4298 35.8465 19.1089 35.284C18.4503 34.1078 17.8931 32.8806 17.3696 31.6362C16.255 28.9601 15.3938 26.1817 14.617 23.4033C13.0465 17.7953 11.7631 12.0681 9.36517 6.73283C8.40262 4.60215 2.77927 5.8976 2.52597 8.09647C1.41143 17.1476 0.735951 26.284 0.499534 35.4374C0.431987 38.1987 7.08544 36.8181 7.15299 34.6021Z" fill="#9CFF1F"/>
<path d="M37.3131 13.7218C36.7896 18.2047 36.3506 22.6877 35.9622 27.1877C35.7764 29.4377 35.6075 31.6877 35.4556 33.9377C35.3373 35.6593 34.8645 37.8922 35.5231 39.5456C36.3506 41.6422 38.5796 41.949 40.5723 42.0002C42.7338 42.0343 44.9291 41.8808 47.0569 41.5229C51.4306 40.7899 56.007 39.4433 59.7221 36.9377C60.4989 36.4093 61.6303 35.3183 60.5158 34.5002C59.4012 33.682 57.4761 34.074 56.3785 34.5854C53.457 35.932 50.6538 37.2104 47.5466 37.7047C46.145 37.9263 44.4563 38.2331 43.0378 38.0286C42.5481 37.9604 42.4974 37.9604 42.2948 37.3638C42.0921 36.7672 42.1259 36.0513 42.1597 35.4206C42.5818 27.8865 43.2742 20.3695 44.1354 12.8865C44.4394 10.1593 37.5833 11.4206 37.3131 13.7558V13.7218Z" fill="#9CFF1F"/>
<path d="M44.7941 30.0851L51.2111 25.8237C52.2581 25.1248 53.3051 24.426 54.369 23.7271C55.5511 22.926 56.8007 22.1419 57.8646 21.1873C58.5569 20.5567 58.8947 19.4998 57.8477 19.0226C56.6825 18.4942 55.0107 18.7158 53.8962 19.2612C51.3969 20.5055 49.1003 22.1419 46.7868 23.693L40.3697 27.9544C39.8631 28.2953 39.1539 28.8237 39.0188 29.4714C38.9006 30.0339 39.2383 30.5283 39.7449 30.7669C41.2478 31.4487 43.4769 30.9714 44.811 30.0851H44.7941Z" fill="#9CFF1F"/>
<path d="M44.7268 13.466C47.2767 12.1194 49.8435 10.7728 52.3934 9.42623L56.1592 7.44896C57.4257 6.78418 58.7767 6.17055 59.9419 5.33532C60.7187 4.78987 61.8839 3.69896 60.7525 2.86373C59.621 2.0285 57.7297 2.50577 56.5645 2.94896C54.9602 3.57964 53.4573 4.466 51.9375 5.26714L48.1717 7.24441C45.5711 8.60805 42.9705 9.98873 40.3868 11.3524C39.4074 11.8637 38.3097 13.449 39.7789 14.1137C41.3663 14.8296 43.3083 14.216 44.7436 13.449L44.7268 13.466Z" fill="#9CFF1F"/>
<path d="M70.26 4.84101L75.9171 25.9092L78.7035 36.2558C79.362 38.7103 79.9869 41.6251 82.9758 41.966C84.7152 42.1535 88.1939 41.7274 88.7343 39.5626L94.2901 17.1478L87.1469 18.5626L90.5918 26.8808C91.6051 29.3353 92.4663 32.0115 93.9692 34.2274C95.2864 36.1876 97.3128 37.449 99.6432 37.7047C102.801 38.0456 105.402 36.8012 107.175 34.1933C110.012 30.0342 110.518 24.2558 111.565 19.4319L115.483 1.55123C116.074 -1.1249 108.88 -0.0169477 108.34 2.45464L104.439 20.3353C103.831 23.1478 103.257 25.9944 102.565 28.7899C102.007 31.0399 101.332 33.4092 99.6432 35.0796L102.987 33.6819C102.261 33.7501 100.977 32.0456 100.572 31.4149C99.6432 29.9831 99.086 28.2615 98.4274 26.6933L94.2732 16.6365C93.2769 14.216 87.6535 15.9206 87.13 18.0512L81.5742 40.466L87.3327 38.0626C86.7754 37.9944 86.4039 36.4603 86.235 35.8296C85.796 34.2274 85.3738 32.6251 84.9516 31.0228L82.4692 21.7842L77.4032 2.93192C76.7277 0.426234 69.5676 2.35237 70.26 4.85805V4.84101Z" fill="#9CFF1F"/>
</g>
<defs>
<clipPath id="clip0_6135_1848">
<rect width="115" height="42" fill="white" transform="translate(0.5)"/>
</clipPath>
</defs>
</svg>
