<svg width="54" height="44" viewBox="0 0 54 44" fill="none" xmlns="http://www.w3.org/2000/svg">
<g clip-path="url(#clip0_6135_1836)">
<path d="M3.67667 28.1738C10.5403 18.8656 17.7936 9.85628 25.3366 1.07621C25.9161 0.398525 24.8371 0.029782 24.3375 -0.000116046C23.4484 -0.0499462 22.4992 0.338729 21.9198 0.996486C14.2569 9.69683 7.03357 18.7759 0.149939 28.0941C-0.389562 28.8216 0.609513 29.1704 1.17899 29.2003C2.0282 29.2402 3.15715 28.8814 3.67667 28.1738Z" fill="#F3F3F3"/>
<path d="M13.9268 34.1037C18.0829 31.3929 22.2391 28.6822 26.3852 25.9614C26.8748 25.6425 27.4742 24.9349 26.7049 24.5463C25.9357 24.1576 24.7767 24.4665 24.1173 24.8851C19.9412 27.5859 15.7751 30.2867 11.5989 32.9974C11.0994 33.3263 10.48 34.0538 11.2692 34.4525C12.0585 34.8511 13.2474 34.5422 13.9168 34.1037H13.9268Z" fill="#F3F3F3"/>
<path d="M23.6077 43.8704C33.1988 40.7212 42.7999 37.5918 52.391 34.4127C52.9205 34.2433 54.1894 33.7848 53.9796 33.0075C53.7797 32.27 52.391 32.4195 51.9015 32.5789C42.3004 35.6983 32.7093 38.8476 23.1081 41.9968C22.5686 42.1762 21.2698 42.6347 21.4896 43.4319C21.6895 44.1794 23.1081 44.0299 23.6177 43.8605L23.6077 43.8704Z" fill="#F3F3F3"/>
</g>
<defs>
<clipPath id="clip0_6135_1836">
<rect width="54" height="44" fill="white"/>
</clipPath>
</defs>
</svg>
