<svg width="33" height="32" viewBox="0 0 33 32" fill="none" xmlns="http://www.w3.org/2000/svg">
<g clip-path="url(#clip0_6135_1823)">
<path d="M9.86908 20.9136C9.99425 20.7699 10.1663 20.686 10.3489 20.686H26.9019C27.2043 20.686 27.3556 21.1052 27.1418 21.3508L23.8718 25.1057C23.7467 25.2494 23.5746 25.3332 23.392 25.3332H6.83906C6.53658 25.3332 6.38534 24.914 6.59916 24.6685L9.86908 20.9136Z" fill="url(#paint0_linear_6135_1823)"/>
<path d="M9.86908 6.89407C9.99946 6.75035 10.1716 6.6665 10.3489 6.6665H26.9019C27.2043 6.6665 27.3556 7.08571 27.1418 7.33125L23.8718 11.0861C23.7467 11.2299 23.5746 11.3137 23.392 11.3137H6.83906C6.53658 11.3137 6.38534 10.8945 6.59916 10.649L9.86908 6.89407Z" fill="url(#paint1_linear_6135_1823)"/>
<path d="M23.8718 13.8589C23.7467 13.7152 23.5746 13.6313 23.392 13.6313H6.83906C6.53658 13.6313 6.38534 14.0506 6.59916 14.2961L9.86908 18.051C9.99425 18.1947 10.1663 18.2786 10.3489 18.2786H26.9019C27.2043 18.2786 27.3556 17.8593 27.1418 17.6138L23.8718 13.8589Z" fill="url(#paint2_linear_6135_1823)"/>
</g>
<defs>
<linearGradient id="paint0_linear_6135_1823" x1="25.3206" y1="4.4235" x2="11.1795" y2="28.011" gradientUnits="userSpaceOnUse">
<stop stop-color="#00FFA3"/>
<stop offset="1" stop-color="#DC1FFF"/>
</linearGradient>
<linearGradient id="paint1_linear_6135_1823" x1="20.3114" y1="1.42035" x2="6.17032" y2="25.0078" gradientUnits="userSpaceOnUse">
<stop stop-color="#00FFA3"/>
<stop offset="1" stop-color="#DC1FFF"/>
</linearGradient>
<linearGradient id="paint2_linear_6135_1823" x1="22.8" y1="2.91236" x2="8.65896" y2="26.4998" gradientUnits="userSpaceOnUse">
<stop stop-color="#00FFA3"/>
<stop offset="1" stop-color="#DC1FFF"/>
</linearGradient>
<clipPath id="clip0_6135_1823">
<rect width="20.7407" height="18.6667" fill="white" transform="translate(6.5 6.6665)"/>
</clipPath>
</defs>
</svg>
